<svg xmlns="http://www.w3.org/2000/svg" width="126" height="14" fill="none"><g clip-path="url(#a)"><mask id="b" width="126" height="14" x="0" y="0" maskUnits="userSpaceOnUse" style="mask-type:luminance"><path fill="#fff" d="M125.125 0H0v14h125.125z"/></mask><g mask="url(#b)"><mask id="c" width="126" height="14" x="0" y="0" maskUnits="userSpaceOnUse" style="mask-type:luminance"><path fill="#fff" d="M0 0h125.125v14H0z"/></mask><g mask="url(#c)"><mask id="d" width="126" height="14" x="0" y="0" maskUnits="userSpaceOnUse" style="mask-type:luminance"><path fill="#fff" d="M0 0h125.125v14H0z"/></mask><g mask="url(#d)"><mask id="e" width="126" height="14" x="0" y="0" maskUnits="userSpaceOnUse" style="mask-type:luminance"><path fill="#fff" d="M0 0h125.125v14H0z"/></mask><g mask="url(#e)"><path fill="#fff" d="M25.39 9.712 19.3.236h-3.288v13.537h2.804V4.297l6.09 9.476h3.286V.236H25.39z"/></g><mask id="f" width="126" height="14" x="0" y="0" maskUnits="userSpaceOnUse" style="mask-type:luminance"><path fill="#fff" d="M0 0h125.125v14H0z"/></mask><g mask="url(#f)"><path fill="#fff" d="M30.511 2.847h4.544v10.926h2.9V2.847H42.5V.237H30.51z"/></g><mask id="g" width="126" height="14" x="0" y="0" maskUnits="userSpaceOnUse" style="mask-type:luminance"><path fill="#fff" d="M0 0h125.125v14H0z"/></mask><g mask="url(#g)"><path fill="#fff" d="M54.106 5.631h-6.38V.236h-2.9v13.537h2.9v-5.53h6.38v5.53h2.9V.236h-2.9z"/></g><mask id="h" width="126" height="14" x="0" y="0" maskUnits="userSpaceOnUse" style="mask-type:luminance"><path fill="#fff" d="M0 0h125.125v14H0z"/></mask><g mask="url(#h)"><path fill="#fff" d="M63.486 2.847h3.577c1.431 0 2.186.522 2.186 1.508s-.755 1.509-2.186 1.509h-3.577zm8.663 1.508c0-2.552-1.876-4.119-4.95-4.119h-6.614v13.537h2.9V8.474h3.23l2.901 5.299h3.21L69.614 8.07c1.612-.62 2.535-1.925 2.535-3.716"/></g><mask id="i" width="126" height="14" x="0" y="0" maskUnits="userSpaceOnUse" style="mask-type:luminance"><path fill="#fff" d="M0 0h125.125v14H0z"/></mask><g mask="url(#i)"><path fill="#fff" d="M81.036 11.293c-2.282 0-3.673-1.624-3.673-4.274 0-2.688 1.391-4.312 3.672-4.312 2.262 0 3.635 1.624 3.635 4.312 0 2.65-1.373 4.274-3.635 4.274m0-11.293c-3.905 0-6.67 2.9-6.67 7.02 0 4.08 2.765 6.98 6.67 6.98 3.885 0 6.63-2.9 6.63-6.98 0-4.12-2.745-7.02-6.63-7.02"/></g><mask id="j" width="126" height="14" x="0" y="0" maskUnits="userSpaceOnUse" style="mask-type:luminance"><path fill="#fff" d="M0 0h125.125v14H0z"/></mask><g mask="url(#j)"><path fill="#fff" d="M96.859 6.25h-3.578V2.847h3.578c1.431 0 2.186.58 2.186 1.702S98.29 6.25 96.859 6.25m.135-6.014H90.38v13.537h2.901V8.86h3.714c3.076 0 4.952-1.625 4.952-4.312S100.07.236 96.994.236"/></g><mask id="k" width="126" height="14" x="0" y="0" maskUnits="userSpaceOnUse" style="mask-type:luminance"><path fill="#fff" d="M0 0h125.125v14H0z"/></mask><g mask="url(#k)"><path fill="#fff" d="M121.586 9.224c-.503 1.315-1.508 2.069-2.881 2.069-2.281 0-3.673-1.624-3.673-4.274 0-2.688 1.392-4.312 3.673-4.312 1.373 0 2.378.754 2.881 2.07h3.074C123.906 1.875 121.644 0 118.705 0c-3.905 0-6.67 2.9-6.67 7.02 0 4.08 2.765 6.98 6.67 6.98 2.958 0 5.22-1.895 5.974-4.776z"/></g><mask id="l" width="126" height="14" x="0" y="0" maskUnits="userSpaceOnUse" style="mask-type:luminance"><path fill="#fff" d="M0 0h125.125v14H0z"/></mask><g mask="url(#l)"><path fill="#fff" d="m103.101.236 5.397 13.537h2.96L106.061.236z"/></g><mask id="m" width="126" height="14" x="0" y="0" maskUnits="userSpaceOnUse" style="mask-type:luminance"><path fill="#fff" d="M0 0h125.125v14H0z"/></mask><g mask="url(#m)"><path fill="#fff" d="M5.097 8.416 6.943 3.66 8.79 8.416zm.299-8.18L0 13.773h3.017l1.104-2.843h5.645l1.103 2.843h3.017L8.49.236z"/></g></g></g></g></g><defs><clipPath id="a"><path fill="#fff" d="M0 0h125.125v14H0z"/></clipPath></defs></svg>