<svg xmlns="http://www.w3.org/2000/svg" width="83" height="25" fill="none"><path fill="#fff" d="M12.05 16.219a3.75 3.75 0 1 0 0-7.5 3.75 3.75 0 0 0 0 7.5M18.806 21.348c.32.319.287.847-.087 1.098a11.94 11.94 0 0 1-6.67 2.023c-2.468 0-4.762-.745-6.67-2.023-.375-.251-.407-.78-.088-1.099l2.74-2.74c.248-.248.633-.287.944-.127a6.7 6.7 0 0 0 3.074.738 6.7 6.7 0 0 0 3.073-.738c.312-.16.696-.12.944.127z"/><path fill="#fff" d="M18.72 2.492c.374.25.406.779.087 1.098l-2.74 2.74c-.248.248-.632.287-.944.128a6.75 6.75 0 0 0-9.085 9.085c.16.311.12.695-.127.943l-2.74 2.74c-.32.32-.848.288-1.099-.087a11.95 11.95 0 0 1-2.022-6.67c0-6.628 5.372-12 12-12 2.468 0 4.762.745 6.67 2.023"/><path fill="#fff" fill-rule="evenodd" d="M39.238 2.906c0-.103.083-.187.187-.187h2.813c.103 0 .187.084.187.187v19.126a.19.19 0 0 1-.187.187h-2.813a.19.19 0 0 1-.187-.187zm-3.97 15.257a.193.193 0 0 0-.258.008 4.9 4.9 0 0 1-1.514.975 5 5 0 0 1-1.95.375 4.2 4.2 0 0 1-1.653-.284 4.15 4.15 0 0 1-1.403-.903c-.726-.74-1.143-1.799-1.143-3.06 0-2.525 1.68-4.252 4.199-4.252a4.7 4.7 0 0 1 1.96.4 4.6 4.6 0 0 1 1.475 1.042c.07.075.189.084.267.016l1.899-1.643a.183.183 0 0 0 .018-.26c-1.428-1.597-3.665-2.42-5.793-2.42-4.284 0-7.322 2.89-7.322 7.14 0 2.104.755 3.874 2.028 5.125s3.087 1.985 5.18 1.985c2.624 0 4.736-1.007 5.975-2.298a.183.183 0 0 0-.015-.265zm22.65-1.953a.185.185 0 0 1-.185.164h-9.852a.18.18 0 0 0-.178.226c.49 1.817 1.952 2.917 3.947 2.917a4.44 4.44 0 0 0 1.948-.404 4.4 4.4 0 0 0 1.477-1.107.14.14 0 0 1 .192-.017l1.98 1.725c.076.066.087.18.022.257-1.196 1.41-3.134 2.436-5.793 2.436-4.09 0-7.176-2.833-7.176-7.137 0-2.111.727-3.882 1.938-5.132a6.7 6.7 0 0 1 2.253-1.49 6.8 6.8 0 0 1 2.67-.49c4.146 0 6.827 2.915 6.827 6.942q-.008.556-.07 1.11m-10.156-2.613a.18.18 0 0 0 .176.228h6.551c.121 0 .21-.113.177-.23-.447-1.545-1.58-2.576-3.339-2.576a3.65 3.65 0 0 0-1.51.274 3.6 3.6 0 0 0-1.255.869c-.368.417-.64.907-.8 1.435m19.974-5.439a.19.19 0 0 1 .19.188v3.149c0 .109-.094.195-.202.187a12 12 0 0 0-.78-.042c-2.453 0-3.894 1.727-3.894 3.994v6.398a.19.19 0 0 1-.187.187H60.05a.19.19 0 0 1-.187-.187V8.54c0-.104.084-.188.187-.188h2.813c.103 0 .187.084.187.188v1.893a.02.02 0 0 0 .035.012c1.1-1.469 2.722-2.285 4.437-2.285zm7.618 8.248a.06.06 0 0 1 .096.009l3.557 5.716a.19.19 0 0 0 .159.088h3.197a.188.188 0 0 0 .16-.286l-4.88-7.872a.19.19 0 0 1 .021-.225l4.7-5.186a.187.187 0 0 0-.138-.314H78.89a.19.19 0 0 0-.138.061l-5.438 5.929a.188.188 0 0 1-.326-.127V2.906a.187.187 0 0 0-.188-.187h-2.812a.19.19 0 0 0-.188.187v19.126c0 .103.084.187.188.187H72.8a.19.19 0 0 0 .188-.187v-3.01c0-.047.018-.093.05-.128z" clip-rule="evenodd"/></svg>