<svg xmlns="http://www.w3.org/2000/svg" width="101" height="30" fill="none"><g clip-path="url(#a)"><path fill="#fff" fill-rule="evenodd" d="M23.163 24.983 11.683 5.018.203 24.983zm11.579-.91 9.594-18.148h-4.15l-6.618 13.18-6.618-13.18H22.8l9.594 18.149zm65.382-18.148v18.149h-3.435V5.925zM81.001 17.3q0-2.122.886-3.732a6.14 6.14 0 0 1 2.469-2.48q1.584-.869 3.704-.869 1.878 0 3.382.818 1.503.818 2.388 2.429.886 1.61.913 3.936v.793H84.624q.108 1.686.993 2.658.913.945 2.443.946a3.24 3.24 0 0 0 1.771-.511q.806-.512 1.208-1.38l3.516.255q-.645 1.917-2.416 3.067t-4.08 1.15q-2.12 0-3.703-.868a6.14 6.14 0 0 1-2.47-2.48q-.885-1.611-.885-3.732M91.2 16.022q-.187-1.662-1.047-2.428-.858-.793-2.093-.793-1.423 0-2.309.844-.885.843-1.1 2.377zm-15.995-2.428q.859.69 1.073 1.917l3.543-.18q-.188-1.558-1.1-2.709-.913-1.15-2.362-1.764-1.422-.639-3.14-.639-2.12 0-3.704.87a6.14 6.14 0 0 0-2.47 2.479q-.885 1.611-.885 3.732t.886 3.732a6.14 6.14 0 0 0 2.469 2.48q1.584.869 3.704.869 1.77 0 3.22-.64 1.45-.665 2.363-1.866.912-1.2 1.1-2.811l-3.57-.154q-.188 1.355-1.046 2.096-.86.717-2.067.716-1.664 0-2.577-1.15-.912-1.15-.912-3.272t.912-3.272 2.577-1.15q1.154 0 1.986.716m-17.428-3.068h3.197l.092 2.607q.34-1.107.947-1.72.88-.887 2.45-.888h1.306v2.791h-1.332q-1.12 0-1.838.305a2.22 2.22 0 0 0-1.066.964q-.345.66-.346 1.674v7.815h-3.41zm-14.746 3.042q-.886 1.611-.886 3.732t.886 3.732a6.14 6.14 0 0 0 2.469 2.48q1.583.869 3.704.869 2.308 0 4.08-1.15 1.77-1.152 2.415-3.068l-3.516-.256a3.2 3.2 0 0 1-1.208 1.38 3.24 3.24 0 0 1-1.771.512q-1.53 0-2.443-.946-.885-.972-.993-2.658h10.119v-.793q-.027-2.326-.913-3.936-.885-1.61-2.388-2.429-1.504-.818-3.382-.818-2.12 0-3.704.87a6.14 6.14 0 0 0-2.47 2.479m8.266.026q.86.766 1.047 2.428h-6.549q.215-1.534 1.1-2.377.886-.844 2.309-.844 1.234 0 2.093.793" clip-rule="evenodd"/></g><defs><clipPath id="a"><path fill="#fff" d="M.203.5h100.594v29H.203z"/></clipPath></defs></svg>