<svg xmlns="http://www.w3.org/2000/svg" width="82" height="20" fill="none"><g fill="#fff" clip-path="url(#a)"><path d="M1.025 18.75V1.25h7.75q1.625 0 2.95.75A5.4 5.4 0 0 1 13.8 3.975q.775 1.25.775 2.85A5.5 5.5 0 0 1 13.8 9.7a5.5 5.5 0 0 1-2.075 2.025q-1.325.75-2.95.75H4.65v6.275zm9.925 0-4.45-7.9 3.85-.625 4.95 8.55zm-6.3-9.325H8.6q.675 0 1.175-.3.525-.325.8-.875.275-.575.275-1.275 0-.75-.325-1.3a2.15 2.15 0 0 0-.95-.85Q8.95 4.5 8.125 4.5H4.65zM22.567 19q-2.15 0-3.776-.875a6.4 6.4 0 0 1-2.5-2.4q-.875-1.524-.875-3.5 0-1.55.5-2.825t1.4-2.2a6 6 0 0 1 2.126-1.45 6.9 6.9 0 0 1 2.7-.525q1.35 0 2.5.5t1.975 1.4a5.9 5.9 0 0 1 1.3 2.1q.45 1.2.4 2.6l-.025 1.1H17.667l-.576-2.175h8.276l-.4.45v-.55a2.2 2.2 0 0 0-.45-1.2 2.53 2.53 0 0 0-.975-.85q-.6-.325-1.35-.325-1.101 0-1.875.425-.75.425-1.15 1.25t-.4 2q0 1.2.5 2.075.525.875 1.45 1.375.95.475 2.225.475.874 0 1.6-.275.725-.275 1.55-.95l1.7 2.375q-.726.65-1.6 1.1-.876.425-1.8.65a7.7 7.7 0 0 1-1.825.225M34.14 19q-1.85 0-3.3-.6-1.425-.625-2.3-1.7l2.225-1.9q.75.825 1.7 1.2.95.35 1.9.35.375 0 .675-.075.325-.1.55-.25.225-.175.325-.4.126-.25.125-.525 0-.55-.45-.85-.25-.15-.775-.325-.525-.2-1.35-.425-1.275-.326-2.175-.75-.875-.45-1.4-1-.45-.525-.7-1.125a4 4 0 0 1-.225-1.375q0-.9.4-1.625.4-.75 1.1-1.275a5.4 5.4 0 0 1 1.65-.8 6.3 6.3 0 0 1 1.95-.3q1.025 0 2 .25t1.8.725q.85.45 1.475 1.075l-1.9 2.1a6 6 0 0 0-1.025-.775 5.2 5.2 0 0 0-1.15-.55q-.6-.2-1.075-.2-.424 0-.775.075-.325.075-.55.25-.224.15-.35.375A1.22 1.22 0 0 0 32.54 9.6q.15.25.4.425.276.15.8.35.55.2 1.475.45 1.2.325 2.025.725.85.4 1.35.925.426.45.625 1.025.2.575.2 1.275 0 1.226-.7 2.175-.675.95-1.875 1.5t-2.7.55M46.971 19q-2.15 0-3.775-.875a6.4 6.4 0 0 1-2.5-2.4q-.875-1.524-.875-3.5 0-1.55.5-2.825t1.4-2.2a6 6 0 0 1 2.125-1.45 6.9 6.9 0 0 1 2.7-.525q1.35 0 2.5.5t1.975 1.4a5.9 5.9 0 0 1 1.3 2.1q.45 1.2.4 2.6l-.025 1.1H42.071l-.575-2.175h8.275l-.4.45v-.55a2.2 2.2 0 0 0-.45-1.2 2.53 2.53 0 0 0-.975-.85q-.6-.325-1.35-.325-1.1 0-1.875.425-.75.425-1.15 1.25t-.4 2q0 1.2.5 2.075.525.875 1.45 1.375.95.475 2.225.475.875 0 1.6-.275t1.55-.95l1.7 2.375q-.725.65-1.6 1.1-.875.425-1.8.65a7.7 7.7 0 0 1-1.825.225M54.095 18.75V5.525h3.4l.1 2.7-.7.3q.275-.9.974-1.625.726-.75 1.725-1.2a5.1 5.1 0 0 1 2.1-.45q1.5 0 2.5.6 1.026.6 1.525 1.825.525 1.2.526 2.975v8.1h-3.55v-7.825q0-.9-.25-1.5t-.776-.875q-.5-.275-1.25-.25-.6 0-1.124.2a2.5 2.5 0 0 0-.876.525q-.349.35-.575.8-.2.45-.2.975v7.95h-3.55M73.571 19q-1.75 0-3.125-.875-1.35-.9-2.15-2.425-.775-1.55-.775-3.575 0-1.976.775-3.525.8-1.575 2.15-2.45 1.375-.9 3.125-.9.925 0 1.775.3.875.275 1.55.775.7.5 1.125 1.125.425.6.475 1.25l-.9.175V.25h3.575v18.5h-3.375l-.15-3.05.7.075a2.4 2.4 0 0 1-.45 1.2 4.3 4.3 0 0 1-1.075 1.05 5.7 5.7 0 0 1-1.5.725q-.825.25-1.75.25m.8-2.95q1 0 1.75-.5t1.175-1.375.425-2.05q0-1.15-.425-2.025a3.4 3.4 0 0 0-1.175-1.375q-.75-.5-1.75-.5t-1.75.5q-.725.5-1.15 1.375-.4.874-.4 2.025 0 1.175.4 2.05.425.875 1.15 1.375.75.5 1.75.5"/></g><defs><clipPath id="a"><path fill="#fff" d="M0 0h81.25v20H0z"/></clipPath></defs></svg>