<svg xmlns="http://www.w3.org/2000/svg" width="134" height="27" fill="none"><g clip-path="url(#a)"><path fill="#fff" d="M35.093 15.579c.138 1.288 1.31 3.498 4.712 3.498 2.965 0 4.39-1.887 4.39-3.729 0-1.657-1.126-3.014-3.355-3.475l-1.61-.345c-.62-.115-1.034-.46-1.034-1.013 0-.644.644-1.127 1.448-1.127 1.287 0 1.77.851 1.862 1.519l2.552-.576c-.138-1.22-1.219-3.268-4.437-3.268-2.436 0-4.23 1.68-4.23 3.706 0 1.588.989 2.9 3.173 3.383l1.494.345c.873.184 1.218.598 1.218 1.105 0 .598-.482 1.127-1.494 1.127-1.333 0-2-.828-2.069-1.726zM53.966 18.731h2.92a19 19 0 0 1-.116-2.048V7.408h-3.057v6.582c0 1.312-.782 2.233-2.138 2.233-1.425 0-2.069-1.013-2.069-2.279V7.408H46.45v7.158c0 2.462 1.563 4.464 4.299 4.464 1.195 0 2.506-.46 3.126-1.519 0 .46.046.99.092 1.22M63.09 23.105v-5.477c.551.76 1.701 1.38 3.264 1.38 3.195 0 5.333-2.531 5.333-5.96 0-3.36-1.908-5.892-5.218-5.892-1.7 0-2.965.76-3.47 1.634V7.41h-2.966v15.695zm5.585-10.034c0 2.025-1.24 3.199-2.804 3.199-1.562 0-2.827-1.197-2.827-3.2 0-2.001 1.264-3.175 2.827-3.175s2.805 1.174 2.805 3.176M73.418 15.648c0 1.772 1.47 3.406 3.885 3.406 1.677 0 2.758-.783 3.332-1.68 0 .437.046 1.058.115 1.358h2.805a13 13 0 0 1-.138-1.796v-5.569c0-2.278-1.333-4.304-4.919-4.304-3.034 0-4.667 1.957-4.85 3.729l2.712.575c.092-.99.828-1.841 2.16-1.841 1.288 0 1.909.667 1.909 1.473 0 .391-.207.713-.85.805l-2.782.415c-1.885.276-3.379 1.403-3.379 3.429m4.528 1.127c-.988 0-1.471-.644-1.471-1.311 0-.875.62-1.312 1.402-1.427l2.552-.392v.507c0 2.002-1.195 2.623-2.483 2.623M89.464 18.731v-1.38c.597.966 1.793 1.656 3.356 1.656 3.219 0 5.333-2.554 5.333-5.984 0-3.36-1.908-5.914-5.218-5.914-1.678 0-2.92.736-3.425 1.542V2.069h-3.011V18.73zm5.632-5.685c0 2.072-1.242 3.223-2.805 3.223-1.54 0-2.827-1.174-2.827-3.222 0-2.072 1.287-3.2 2.827-3.2 1.564 0 2.805 1.128 2.805 3.2M99.884 15.648c0 1.772 1.471 3.406 3.885 3.406 1.678 0 2.758-.783 3.333-1.68 0 .437.046 1.058.115 1.358h2.804a13 13 0 0 1-.138-1.796v-5.569c0-2.278-1.333-4.304-4.919-4.304-3.034 0-4.666 1.957-4.85 3.729l2.712.575c.092-.99.828-1.841 2.161-1.841 1.288 0 1.908.667 1.908 1.473 0 .391-.207.713-.851.805l-2.781.415c-1.885.276-3.379 1.403-3.379 3.429m4.529 1.127c-.989 0-1.472-.644-1.472-1.311 0-.875.621-1.312 1.403-1.427l2.551-.392v.507c0 2.002-1.195 2.623-2.482 2.623M112 15.579c.137 1.288 1.31 3.498 4.712 3.498 2.965 0 4.39-1.887 4.39-3.729 0-1.657-1.126-3.014-3.356-3.475l-1.609-.345c-.621-.115-1.034-.46-1.034-1.013 0-.644.643-1.127 1.448-1.127 1.287 0 1.77.851 1.862 1.519l2.551-.576c-.138-1.22-1.218-3.268-4.436-3.268-2.437 0-4.229 1.68-4.229 3.706 0 1.588.988 2.9 3.172 3.383l1.494.345c.873.184 1.218.598 1.218 1.105 0 .598-.483 1.127-1.494 1.127-1.334 0-2-.828-2.069-1.726zM125.745 11.781c.069-1.035.943-2.232 2.529-2.232 1.746 0 2.482 1.105 2.528 2.232zm5.356 2.946c-.368 1.013-1.149 1.726-2.574 1.726-1.518 0-2.782-1.082-2.851-2.577h8.091c0-.046.046-.507.046-.944 0-3.636-2.091-5.869-5.585-5.869-2.896 0-5.563 2.348-5.563 5.961 0 3.82 2.735 6.053 5.839 6.053 2.781 0 4.574-1.634 5.149-3.59z"/><path fill="url(#b)" d="M14.917 25.593c-.658.828-1.992.374-2.008-.684l-.232-15.473h10.404c1.885 0 2.936 2.176 1.764 3.652z"/><path fill="url(#c)" fill-opacity=".2" d="M14.917 25.593c-.658.828-1.992.374-2.008-.684l-.232-15.473h10.404c1.885 0 2.936 2.176 1.764 3.652z"/><path fill="#fff" d="M10.685.694c.658-.83 1.992-.375 2.008.683l.102 15.474H2.52c-1.884 0-2.935-2.177-1.763-3.653z"/></g><defs><linearGradient id="b" x1="12.677" x2="21.924" y1="12.867" y2="16.745" gradientUnits="userSpaceOnUse"><stop stop-color="#fff" stop-opacity=".6"/><stop offset="1" stop-color="#fff"/></linearGradient><linearGradient id="c" x1="8.577" x2="12.794" y1="7.253" y2="15.192" gradientUnits="userSpaceOnUse"><stop stop-color="#fff"/><stop offset="1" stop-color="#fff" stop-opacity="0"/></linearGradient><clipPath id="a"><path fill="#fff" d="M.258.217H133.94v26H.26z"/></clipPath></defs></svg>